<svg version="1.0" xmlns="http://www.w3.org/2000/svg" width="143px" height="147px" viewBox="0 0 143 147" preserveAspectRatio="xMidYMid meet">
 <g fill="#000000">
  
 </g>
 <g fill="#ecf2ff">
  <path d="M69.8 144.8 c-0.8 -0.7 -14.8 -21.1 -31 -45.3 -16.2 -24.2 -31 -46.1 -32.8 -48.7 -5.5 -7.8 -5.2 -7.9 17.7 -7.6 l19.8 0.3 0 2.5 c0 2.4 -0.3 2.5 -6.8 2.8 -6.4 0.3 -6.8 0.4 -6.5 2.5 0.3 2.3 0.2 2.2 11.6 2.6 2.7 0.1 4.1 2.9 2.1 4.2 -0.8 0.5 -3.8 0.9 -6.6 0.9 -5.7 0 -6.1 0.4 -3.7 3.8 0.9 1.3 1.3 2.9 1 3.7 -1 2.7 -4.2 1.6 -6.2 -2 -1.8 -3.3 -4.6 -4.6 -5.8 -2.6 -0.3 0.5 9.1 15.5 21 33.3 26.9 40 26.1 39 28.6 38.6 1.5 -0.2 8.9 -10.5 25.5 -35.2 12.8 -19.3 23.2 -35.5 23 -36 -0.8 -2.4 -3.6 -1.5 -5.7 1.8 -2.5 4.2 -6 4.9 -6 1.4 0 -1.3 0.7 -3.2 1.6 -4.3 1.5 -1.9 1.3 -2 -4.8 -2.5 -5.6 -0.4 -6.3 -0.8 -6.6 -2.7 -0.2 -1.3 0 -2.3 0.5 -2.4 0.4 -0.1 3.4 -0.2 6.6 -0.3 5.4 -0.2 7.6 -1.3 7.7 -3.8 0 -0.4 -3.3 -0.8 -7.2 -1 -6.2 -0.3 -7.3 -0.6 -7.6 -2.2 -0.2 -1 0.2 -2.2 1 -2.7 0.7 -0.5 9.9 -0.9 20.4 -0.9 16.2 0 19.3 0.2 19.8 1.5 0.3 0.9 -2.8 6.5 -8.1 14.3 -4.7 7 -19.2 28.5 -32.1 47.7 -22.5 33.5 -26.8 39.5 -28.2 39.5 -0.3 0 -1.3 -0.6 -2.2 -1.2z m-45.8 -89.3 c1.9 -2.3 0.3 -5.7 -2.7 -5.3 -3.4 0.4 -5.1 3.1 -3.4 5.2 1.7 2 4.5 2.1 6.1 0.1z m101 0 c2 -2.5 0.8 -5 -2.5 -5 -3.1 0 -4.3 2 -3.1 5.1 0.7 1.8 4 1.8 5.6 -0.1z" data-index="1" style="opacity: 1;"></path>
  <path d="M69.5 126 c-1.4 -1.6 -1.5 -2.2 -0.5 -3.5 2.8 -3.4 7.7 -0.4 5.3 3.3 -1.5 2.4 -2.8 2.4 -4.8 0.2z" data-index="2"></path>
  <path d="M51.6 99 c-6.9 -10.5 -12.6 -19.5 -12.6 -19.9 0 -1.9 2.7 -3.1 4.2 -1.8 2.8 2.1 24.9 36.9 24.6 38.6 -0.2 0.9 -1.1 1.7 -2 1.9 -1.2 0.2 -5.2 -5.1 -14.2 -18.8z" data-index="3" style="opacity: 1;"></path>
  <path d="M76.7 117.3 c-1.7 -1.6 0 -4.9 11.3 -22.1 8.8 -13.5 12.4 -18.2 13.9 -18.2 1.1 0 2.3 0.5 2.6 1 0.8 1.4 -24.3 40 -25.9 40 -0.7 0 -1.6 -0.3 -1.9 -0.7z" data-index="4" style="opacity: 1;"></path>
  <path d="M64.5 74.4 c-9.7 -5 -12.4 -15.7 -6.1 -23.9 3.6 -4.6 11.6 -7.1 17.6 -5.5 11.5 3.1 16.4 15.5 9.6 24.5 -4.7 6.1 -14.4 8.4 -21.1 4.9z m11.9 -4.8 c4.5 -1.9 6.6 -5.2 6.6 -10.4 0 -3.5 -0.6 -4.9 -2.9 -7.3 -2.5 -2.5 -3.7 -2.9 -8.1 -2.9 -4.4 0 -5.6 0.4 -8.1 2.9 -5.3 5.4 -3.5 14.6 3.5 17.7 4 1.7 4.9 1.7 9 0z" data-index="5" style="opacity: 1;"></path>
  <path d="M67.3 58.3 c-1.6 -0.6 -1.7 -3.5 -0.1 -5.1 1.6 -1.6 2.3 -1.5 4.2 0.4 1.2 1.2 1.3 2 0.6 3.5 -1.1 1.9 -2.3 2.2 -4.7 1.2z" data-index="6"></path>
  <path d="M49 46.6 c0 -1.7 2.4 -6 5.1 -9 9.8 -11.3 27.7 -10.7 36.6 1.2 6.1 8.1 3.3 9.8 -4.7 2.7 -7.8 -6.9 -15.2 -8 -24.1 -3.4 -2.1 1 -5 3.5 -6.5 5.4 -1.4 1.9 -3.5 3.5 -4.5 3.5 -1.1 0 -1.9 -0.2 -1.9 -0.4z" data-index="7" style="opacity: 1;"></path>
  <path d="M88.2 34.4 c-1.2 -0.8 -2.2 -1.9 -2.2 -2.3 0 -0.4 6.3 -2.5 14 -4.6 8.1 -2.2 14 -4.3 14 -5 0 -2.2 3.6 -4.5 7.2 -4.5 4.8 0 7.8 3.3 7.8 8.7 0 5.3 -3.6 8.6 -8.9 8.1 -4.5 -0.4 -5.1 -2.4 -0.9 -3.3 4.3 -0.9 5.8 -2.2 5.8 -5 0 -5.2 -6.1 -6 -7 -1 -0.5 2.9 -1 3.1 -11.5 6.1 -16 4.5 -15.9 4.5 -18.3 2.8z" data-index="8" style="opacity: 1;"></path>
  <path d="M68.2 23.8 c-0.8 -1.1 -0.1 -2 3.4 -4.2 4.7 -3 5 -3.6 3.4 -6.7 -1.4 -2.6 -2.6 -2.4 -7 1.1 -4.4 3.5 -5 3.6 -5 1.1 0 -2.7 6.8 -8.1 10.1 -8.1 2 0 3.2 0.9 4.8 3.6 3.2 5.4 2.8 7.9 -2 10.9 -5.5 3.5 -6.4 3.8 -7.7 2.3z" data-index="9"></path>
  <path d="M96.8 18.2 c-5.9 -3.8 -6.8 -5.1 -4.5 -7 0.9 -0.8 3.3 0.1 9 3.5 4.2 2.5 7.7 4.9 7.7 5.3 0 0.7 -3.4 2 -5.5 2 -0.5 0 -3.6 -1.7 -6.7 -3.8z" data-index="10"></path>
  <path d="M81 10.1 c-1.5 -3 -1.2 -4.8 1.1 -6.5 4.3 -3 9.3 2 6.3 6.3 -1.9 2.6 -6 2.7 -7.4 0.2z m5.6 -2.2 c0.3 -0.6 0.1 -1.6 -0.4 -2.1 -1.3 -1.3 -4.5 0.8 -3.6 2.3 0.7 1.2 3.1 1.1 4 -0.2z" data-index="11"></path>
 </g>
</svg>